REM DIRINDEX 1\2,1\3,1\4,1\5
REM DIRNAME folder01,folder02,folder03,folder04,folder05
TITLE ""
FILE "079.mp3" MP3
  TRACK 01 AUDIO
    TITLE "0:"
    INDEX 01 00:00:00
  TRACK 02 AUDIO
    TITLE "2:cjc046_1568"
    INDEX 01 00:00:15
  TRACK 03 AUDIO
    TITLE "0:"
    INDEX 01 00:01:24
  TRACK 04 AUDIO
    TITLE "3:cjc046_1569"
    INDEX 01 00:01:46
  TRACK 05 AUDIO
    TITLE "0:"
    INDEX 01 00:02:57
  TRACK 06 AUDIO
    TITLE "4:cjc046_1570"
    INDEX 01 00:02:67
  TRACK 07 AUDIO
    TITLE "0:"
    INDEX 01 00:04:01
  TRACK 08 AUDIO
    TITLE "2:cjc046_1571"
    INDEX 01 00:05:09
  TRACK 09 AUDIO
    TITLE "0:"
    INDEX 01 00:06:12
  TRACK 10 AUDIO
    TITLE "3:cjc046_1572"
    INDEX 01 00:06:37
  TRACK 11 AUDIO
    TITLE "0:"
    INDEX 01 00:07:68
  TRACK 12 AUDIO
    TITLE "4:cjc046_1573"
    INDEX 01 00:08:03
  TRACK 13 AUDIO
    TITLE "0:"
    INDEX 01 00:09:10
  TRACK 14 AUDIO
    TITLE "2:cjc046_1574"
    INDEX 01 00:10:18
  TRACK 15 AUDIO
    TITLE "0:"
    INDEX 01 00:11:21
  TRACK 16 AUDIO
    TITLE "3:cjc046_1575"
    INDEX 01 00:11:42
  TRACK 17 AUDIO
    TITLE "0:"
    INDEX 01 00:12:38
  TRACK 18 AUDIO
    TITLE "4:cjc046_1576"
    INDEX 01 00:12:54
  TRACK 19 AUDIO
    TITLE "0:"
    INDEX 01 00:13:57
  TRACK 20 AUDIO
    TITLE "2:cjc046_1577"
    INDEX 01 00:14:64
  TRACK 21 AUDIO
    TITLE "0:"
    INDEX 01 00:15:72
  TRACK 22 AUDIO
    TITLE "3:cjc046_1578"
    INDEX 01 00:16:26
  TRACK 23 AUDIO
    TITLE "0:"
    INDEX 01 00:18:03
  TRACK 24 AUDIO
    TITLE "4:cjc046_1579"
    INDEX 01 00:18:13
  TRACK 25 AUDIO
    TITLE "0:"
    INDEX 01 00:19:24
  TRACK 26 AUDIO
    TITLE "2:cjc046_1580"
    INDEX 01 00:20:32
  TRACK 27 AUDIO
    TITLE "0:"
    INDEX 01 00:21:39
  TRACK 28 AUDIO
    TITLE "3:cjc046_1581"
    INDEX 01 00:21:68
  TRACK 29 AUDIO
    TITLE "0:"
    INDEX 01 00:23:10
  TRACK 30 AUDIO
    TITLE "4:cjc046_1582"
    INDEX 01 00:23:14
  TRACK 31 AUDIO
    TITLE "0:"
    INDEX 01 00:24:25
  TRACK 32 AUDIO
    TITLE "2:cjc046_1583"
    INDEX 01 00:25:37
  TRACK 33 AUDIO
    TITLE "0:"
    INDEX 01 00:26:46
  TRACK 34 AUDIO
    TITLE "3:cjc046_1584"
    INDEX 01 00:26:67
  TRACK 35 AUDIO
    TITLE "0:"
    INDEX 01 00:28:06
  TRACK 36 AUDIO
    TITLE "4:cjc046_1585"
    INDEX 01 00:28:19
  TRACK 37 AUDIO
    TITLE "0:"
    INDEX 01 00:29:25
  TRACK 38 AUDIO
    TITLE "2:cjc046_1586"
    INDEX 01 00:30:38
  TRACK 39 AUDIO
    TITLE "0:"
    INDEX 01 00:31:47
  TRACK 40 AUDIO
    TITLE "3:cjc046_1587"
    INDEX 01 00:31:73
  TRACK 41 AUDIO
    TITLE "0:"
    INDEX 01 00:33:09
  TRACK 42 AUDIO
    TITLE "4:cjc046_1588"
    INDEX 01 00:33:26
  TRACK 43 AUDIO
    TITLE "0:"
    INDEX 01 00:34:36
  TRACK 44 AUDIO
    TITLE "2:cjc046_1589"
    INDEX 01 00:35:45
  TRACK 45 AUDIO
    TITLE "0:"
    INDEX 01 00:36:42
  TRACK 46 AUDIO
    TITLE "3:cjc046_1590"
    INDEX 01 00:36:68
  TRACK 47 AUDIO
    TITLE "0:"
    INDEX 01 00:38:02
  TRACK 48 AUDIO
    TITLE "4:cjc046_1591"
    INDEX 01 00:38:14
  TRACK 49 AUDIO
    TITLE "0:"
    INDEX 01 00:39:09
  TRACK 50 AUDIO
    TITLE "2:cjc046_1592"
    INDEX 01 00:40:19
  TRACK 51 AUDIO
    TITLE "0:"
    INDEX 01 00:41:24
  TRACK 52 AUDIO
    TITLE "3:cjc046_1593"
    INDEX 01 00:41:42
  TRACK 53 AUDIO
    TITLE "0:"
    INDEX 01 00:42:68
  TRACK 54 AUDIO
    TITLE "4:cjc046_1594"
    INDEX 01 00:42:72
  TRACK 55 AUDIO
    TITLE "0:"
    INDEX 01 00:44:01
  TRACK 56 AUDIO
    TITLE "2:cjc046_1595"
    INDEX 01 00:45:10
  TRACK 57 AUDIO
    TITLE "0:"
    INDEX 01 00:46:21
  TRACK 58 AUDIO
    TITLE "3:cjc046_1596"
    INDEX 01 00:46:49
  TRACK 59 AUDIO
    TITLE "0:"
    INDEX 01 00:47:42
  TRACK 60 AUDIO
    TITLE "4:cjc046_1597"
    INDEX 01 00:47:60
  TRACK 61 AUDIO
    TITLE "0:"
    INDEX 01 00:48:71
